# xmcd CD database file
#
# Track frame offsets:
#	150
#	31125
#	53960
#	76980
#	96795
#	118460
#	145145
#	149000
#	161450
#	184612
#	224425
#	233700
#
# Disc length: 3253 seconds
#
# Revision: 0
# Processed by: cddbd v1.5.2PL0 Copyright (c) Steve Scherf et al.
# Submitted via: CDex 1.70beta2
#
DISCID=aa0cb30c
DTITLE=Sax Appeal Saxophone Quartet - Giotto
DYEAR=1900
DGENRE=Jazz
TTITLE0=Dark Yellow
TTITLE1=Waltz in a green Spring
TTITLE2=Blue in Green
TTITLE3=Violet
TTITLE4=Krimson
TTITLE5=Self Portrait in three Colors
TTITLE6=Rosa Semplice
TTITLE7=Black Danubio
TTITLE8=Fuxia Indigo and Violet
TTITLE9=Hopi Turquoise
TTITLE10=Saxing Bluette
TTITLE11=Rouge
EXTD=
EXTT0=
EXTT1=
EXTT2=
EXTT3=
EXTT4=
EXTT5=
EXTT6=
EXTT7=
EXTT8=
EXTT9=
EXTT10=
EXTT11=
PLAYORDER=
